<?xml version="1.0" standalone="no"?>
<!DOCTYPE svg PUBLIC "-//W3C//DTD SVG 20010904//EN" "http://www.w3.org/TR/2001/REC-SVG-20010904/DTD/svg10.dtd">
<!-- Created using Krita: https://krita.org -->
<svg xmlns="http://www.w3.org/2000/svg" 
    xmlns:xlink="http://www.w3.org/1999/xlink"
    xmlns:krita="http://krita.org/namespaces/svg/krita"
    xmlns:sodipodi="http://sodipodi.sourceforge.net/DTD/sodipodi-0.dtd"
    width="1.92pt"
    height="1.92pt"
    viewBox="0 0 1.92 1.92">
<defs/>
<path id="shape0" transform="translate(-6.5733636012147, -12.0554771611616)" fill="#eb6320" d="M14.8454 25.461C14.8449 25.4608 14.8444 25.4607 14.8441 25.4607C14.8393 25.4614 14.8348 25.4608 14.8305 25.4629C14.7984 25.4788 14.7705 25.4922 14.7406 25.5119C14.7266 25.5212 14.7148 25.5308 14.7061 25.5452C14.6971 25.5602 14.6917 25.5756 14.6919 25.5931C14.6924 25.633 14.7005 25.6668 14.7082 25.706C14.7105 25.7178 14.7156 25.7342 14.7236 25.7551L0.0307518 0.306257C0.0234507 0.286268 0.0187258 0.270672 0.0165772 0.259469C0.0090196 0.220063 0.000865485 0.186146 2.21451e-05 0.146032C-0.000356618 0.128015 0.00412759 0.111847 0.0131457 0.0962456C0.021532 0.0817372 0.0343872 0.0732358 0.0478602 0.0632709C0.0766953 0.0419438 0.103567 0.0267572 0.1336 0.00715435C0.13738 0.00468724 0.140598 0.00253347 0.144471 0.000214341C0.14469 8.27829e-05 0.145049 1.13358e-05 0.145547 0L0.145547 0Z" sodipodi:nodetypes="cccccccccccccccccc"/><path id="shape1" transform="translate(-7.02331737932095, -12.239427360226)" fill="#eb6320" d="M0 1.05395C0.000385041 1.05402 0.000682541 1.05406 0.0008925 1.05407C0.00648029 1.05421 0.0114869 1.05593 0.0168598 1.05439C0.0305599 1.05046 0.0442073 1.04862 0.0544401 1.0387C0.198825 0.898706 0.313165 0.769266 0.456459 0.628155C0.513951 0.571539 0.566505 0.526383 0.627876 0.473999C0.6469 0.457761 0.66512 0.446205 0.685911 0.432302C0.790342 0.362467 0.878226 0.299972 0.985612 0.234773C1.03913 0.202279 1.08943 0.182399 1.145 0.153565C1.15452 0.148626 1.16232 0.143729 1.17157 0.138294C1.17869 0.134112 1.18478 0.130514 1.19175 0.126089C1.21186 0.113309 1.22971 0.103206 1.24895 0.089142C1.27641 0.0690747 1.31484 0.0393606 1.36426 0L16.0603 25.4543C16.0112 25.4942 15.9729 25.5242 15.9456 25.5445C15.9264 25.5586 15.9088 25.5691 15.8884 25.5815C15.8814 25.5858 15.8747 25.5884 15.8673 25.592C15.8576 25.5967 15.8491 25.6004 15.8395 25.6051C15.7833 25.6329 15.7334 25.6534 15.6793 25.6849C15.5708 25.748 15.4811 25.8076 15.3754 25.8753C15.3544 25.8887 15.3364 25.9007 15.3172 25.9166C15.2552 25.9678 15.2002 26.0099 15.1436 26.067C15.001 26.2107 14.8891 26.3439 14.7487 26.4898C14.7388 26.5 14.7275 26.5057 14.7149 26.5122C14.7104 26.5146 14.7056 26.5139 14.7006 26.5148C14.7005 26.5148 14.7002 26.5149 14.6999 26.5149L14.6999 26.5149Z" sodipodi:nodetypes="cccccccccccccccccccccccccccc"/><path id="shape2" transform="translate(-7.75327363928419, -13.8534557587514)" fill="#eb6320" d="M0 2.87827C0.00228608 2.8787 0.00405108 2.87899 0.005295 2.87913C0.00777544 2.8794 0.0101337 2.88068 0.0124065 2.87965C0.0657848 2.85544 0.111397 2.83427 0.163474 2.80738C0.183427 2.79707 0.199806 2.78671 0.217957 2.77349C0.455183 2.60067 0.658827 2.45291 0.892974 2.27594C0.928655 2.24897 0.955086 2.22079 0.988527 2.19109C1.02041 2.16278 1.04757 2.13832 1.07961 2.11018C1.13081 2.06522 1.17472 2.02671 1.22636 1.98225C1.28062 1.93554 1.32625 1.89441 1.38217 1.8497C1.43782 1.8052 1.48686 1.7687 1.54498 1.72747C1.60053 1.68807 1.64669 1.65142 1.70681 1.61943C1.9126 1.50994 2.09059 1.41846 2.30363 1.32384C2.55245 1.21332 2.77602 1.14299 3.02541 1.03376C3.52739 0.813899 3.96041 0.630228 4.44989 0.383791C4.60342 0.306494 4.81302 0.178563 5.0787 0L19.7653 25.438C19.4871 25.595 19.2709 25.7114 19.1166 25.7873C18.6252 26.0287 18.2013 26.2304 17.7008 26.4523C17.4516 26.5628 17.2241 26.6244 16.9758 26.7367C16.7636 26.8326 16.5903 26.9329 16.387 27.0463C16.3275 27.0795 16.2814 27.1159 16.2256 27.1551C16.1675 27.1961 16.1175 27.2311 16.0616 27.2753C16.0054 27.3197 15.9595 27.3605 15.9058 27.4079C15.8545 27.4532 15.8126 27.4944 15.7616 27.5402C15.73 27.5687 15.7025 27.5927 15.67 27.6201C15.6361 27.6488 15.6067 27.673 15.5718 27.7004C15.3399 27.8819 15.1407 28.0369 14.9077 28.2169C14.8899 28.2307 14.8744 28.2423 14.8551 28.254C14.8052 28.2845 14.7615 28.309 14.7104 28.3373C14.7084 28.3384 14.7061 28.3375 14.7039 28.3378C14.7028 28.3379 14.7014 28.3382 14.6995 28.3386L14.6995 28.3386Z" sodipodi:nodetypes="cccccccccccccccccccccccccccccccccc"/><path id="shape3" transform="translate(1.75500178142976, -13.1655742508118)" fill="#eb6320" d="M0 0L14.7 25.4611" sodipodi:nodetypes="cc"/><path id="shape4" transform="translate(-27.2399995013873, -16.3305743908399)" fill="#eb6320" d="M0 0L14.7 25.4611" sodipodi:nodetypes="cc"/><path id="shape5" transform="translate(-7.31206737033309, -12.4041625167481)" fill="#20eb82" d="M0 0.157436C0.000608138 0.157478 0.00105225 0.157429 0.00133233 0.15729C0.017727 0.149147 0.03245 0.143322 0.0479667 0.13361C0.0902104 0.107169 0.125338 0.0827887 0.16612 0.0541445C0.186294 0.039975 0.202493 0.0263396 0.222055 0.0113358C0.225485 0.00870456 0.230371 0.00492597 0.236711 0L14.9312 25.4516C14.9245 25.4559 14.9193 25.4592 14.9158 25.4616C14.8954 25.4752 14.8775 25.4862 14.8577 25.5007C14.8172 25.5302 14.7838 25.5573 14.7437 25.5873C14.729 25.5983 14.7159 25.6072 14.701 25.6178C14.7007 25.618 14.7004 25.6182 14.6999 25.6184L14.6999 25.6184Z" sodipodi:nodetypes="cccccccccccccc"/>
</svg>
